<svg
  xmlns="http://www.w3.org/2000/svg"
  viewBox="0 0 425.51 421.77"
  aria-hidden="true"
>
  <style>
    path {
      fill: black;
    }
    @media (prefers-color-scheme: dark) {
      path {
        fill: white;
      }
    }
  </style>
  <path
    d="M462.86,249.66c-.13,52.88-43.49,96-96.29,95.82-53.94-.2-96-43.43-95.89-98.49.13-51.18,44.3-94.36,96.26-94.11A96.25,96.25,0,0,1,462.86,249.66Zm-137-1.55c.11,23.51,20.67,42.95,42.83,41,22.9-2,41.42-21.74,38.2-41Z"
    transform="translate(-37.35 -39.72)"
    fill="currentColor"></path><path
    d="M229.34,248.24a96.07,96.07,0,0,1-95.9,96.09c-53.23.11-96.12-43.26-96.09-97.16,0-52.43,43.25-95.4,96-95.44C186.63,151.7,229.34,194.64,229.34,248.24Zm-136.89-.08c.37,14.92,6.46,26.46,18.73,34.23,14.36,9.1,29.36,9.3,43.86.35,12.53-7.75,19-19.25,19.18-34.58Z"
    transform="translate(-37.35 -39.72)"
    fill="currentColor"></path><path
    d="M277.64,343.44c22.26,17.76,46.73,28.08,74.26,31.19s53.6-1.51,79.13-13.28c-25.51,46-86.61,96.69-167.63,99.93S119.65,430.19,74.08,363.47c52.47,20.61,101.79,15.76,148.34-17.31l26.83,46.29C258.89,375.81,268.15,359.81,277.64,343.44Z"
    transform="translate(-37.35 -39.72)"
    fill="currentColor"></path><path
    d="M411.38,113.63c-14.72,0-29.46-.44-44.16.09-35.11,1.27-66.85,12-93.17,35.92-8.26,7.52-15.35,16.33-22.35,23.89-8.56-8.82-16.79-18.74-26.45-27-24.09-20.55-52.5-31-84-32.2-16-.64-32-.11-48.25-1C130.33,70.05,177.26,45,234,40.5,305,34.87,364.12,59.94,411.38,113.63Z"
    transform="translate(-37.35 -39.72)"
    fill="currentColor"></path>
</svg>
